<?xml version="1.0" standalone="no"?>
<!DOCTYPE svg PUBLIC "-//W3C//DTD SVG 20010904//EN"
 "http://www.w3.org/TR/2001/REC-SVG-20010904/DTD/svg10.dtd">
<svg version="1.0" xmlns="http://www.w3.org/2000/svg"
 width="183.000000pt" height="172.000000pt" viewBox="0 0 183.000000 172.000000"
 preserveAspectRatio="xMidYMid meet">

<g transform="translate(0.000000,172.000000) scale(0.100000,-0.100000)"
fill="#000000" stroke="none">
<path d="M277 1495 c-78 -41 -77 -28 -77 -676 0 -604 0 -600 49 -646 l24 -23
654 0 653 0 35 36 35 36 0 603 c0 596 0 603 -21 629 -45 58 -23 56 -701 56
-524 0 -627 -2 -651 -15z m1303 -140 l0 -25 -655 0 c-639 0 -655 0 -655 19 0
11 6 22 13 24 6 3 301 6 655 6 l642 1 0 -25z m0 -135 c0 -20 -7 -20 -655 -20
-648 0 -655 0 -655 20 0 20 7 20 655 20 648 0 655 0 655 -20z m0 -135 l0 -25
-655 0 -655 0 0 25 0 25 655 0 655 0 0 -25z m0 -130 l0 -25 -655 0 c-639 0
-655 0 -655 19 0 11 6 22 13 24 6 3 301 6 655 6 l642 1 0 -25z m0 -135 c0 -20
-7 -20 -655 -20 -648 0 -655 0 -655 20 0 20 7 20 655 20 648 0 655 0 655 -20z
m0 -135 l0 -25 -655 0 -655 0 0 25 0 25 655 0 655 0 0 -25z m0 -135 l0 -30
-639 0 c-352 0 -646 3 -655 6 -19 7 -21 40 -3 47 6 3 301 6 655 6 l642 1 0
-30z m0 -135 l0 -25 -639 0 c-352 0 -646 3 -655 6 -9 3 -16 15 -16 25 0 18 19
19 655 19 l655 0 0 -25z m0 -130 l0 -25 -655 0 c-639 0 -655 0 -655 19 0 11 6
22 13 24 6 3 301 6 655 6 l642 1 0 -25z"/>
</g>
</svg>
