 <svg version="1.1" id="Calque_1" xmlns="http://www.w3.org/2000/svg"
                xmlns:xlink="http://www.w3.org/1999/xlink" x="0px" y="0px" width="100px" height="100px"  viewBox="0 0 234.7 234.4"
                style="enable-background:new 0 0 510.7 234.4;" xml:space="preserve">
                 <style type="text/css">
        .st0 { fill: orange; opacity: 0.3; }
        .st1 { fill: black; opacity: 0.3; }
    </style>
                <path class="st0" d="M94.8,116.1c-3.6-2.7-6.6-5.6-11.1-10.2c-5.6-5.7-6.2-10.1,5-20.9c11.1-10.9,15.5-10.2,21.1-4.5
	c4.2,4.3,6.4,6.7,9.4,10.4l0.1,0.1l6.3-6.9c-2.1-3.2-4.2-6-8.7-10.5c-6-6.1-11.5-8.8-17.2-8.2c-5.6,0.6-11.5,4-19,11.4
	c-7.5,7.3-11.2,13.1-11.8,18.8c-0.7,5.7,1.8,11.2,7.8,17.3c5,5.1,8.4,7.9,12.8,10.5l6.1-6.7L94.8,116.1z" />
                <path class="st1" d="M114.1,104.2c-5.1-4.9-8.7-7.6-13.2-10l-6.1,6.7l1.1,0.7c3.6,2.6,6.8,5.4,11.4,9.8c3.3,3.2,4.5,5.8,4,8.7
	c-0.6,3.2-3.1,7-8.2,12.4c-5.1,5.4-8.8,8.1-12,8.8c-2.9,0.7-5.6-0.4-8.9-3.6c-4.4-4.2-6.6-6.5-9.7-10.1l-1-1.1l-6.1,6.7
	c2.5,3.8,4.7,6.6,10,11.7c5.7,5.4,10.9,7.9,16.1,7.7c0.5,0,0.9-0.1,1.4-0.1c5.6-0.7,11.4-4.5,18.6-12.1c7.2-7.6,10.7-13.5,11.1-19.2
	C123,115.5,120.3,110.1,114.1,104.2" />
              </svg>