<?xml version="1.0" standalone="no"?>
<!DOCTYPE svg PUBLIC "-//W3C//DTD SVG 20010904//EN"
 "http://www.w3.org/TR/2001/REC-SVG-20010904/DTD/svg10.dtd">
<svg version="1.0" xmlns="http://www.w3.org/2000/svg"
 width="145.000000pt" height="154.000000pt" viewBox="0 0 145.000000 154.000000"
 preserveAspectRatio="xMidYMid meet">

<g transform="translate(0.000000,154.000000) scale(0.100000,-0.100000)"
fill="#000000" stroke="none">
<path d="M589 1357 c-78 -33 -127 -73 -171 -141 -50 -77 -61 -123 -56 -226 4
-75 9 -94 46 -165 29 -56 43 -98 48 -140 12 -120 47 -184 118 -216 58 -26 234
-26 291 0 76 34 101 79 124 221 6 35 27 97 46 137 46 95 60 168 46 246 -21
122 -91 216 -199 269 -57 28 -79 33 -152 36 -71 2 -94 -1 -141 -21z m216 -79
c80 -26 136 -77 172 -155 37 -80 30 -159 -25 -271 -25 -51 -45 -109 -52 -155
-15 -93 -34 -135 -66 -147 -36 -14 -198 -12 -229 2 -31 14 -55 55 -55 94 0 51
-32 159 -69 229 -32 63 -36 78 -35 145 0 84 13 117 71 181 39 43 74 65 138 85
56 18 76 17 150 -8z"/>
<path d="M718 1063 l-37 -37 -12 27 c-13 28 -30 39 -46 29 -18 -12 -83 -116
-83 -133 0 -30 33 -33 57 -5 25 30 38 33 47 11 8 -23 40 -18 66 10 29 31 33
31 45 3 17 -37 33 -32 96 31 61 61 67 76 36 95 -13 8 -22 5 -45 -17 -35 -33
-38 -33 -46 -2 -9 35 -35 31 -78 -12z"/>
<path d="M530 365 c-7 -8 -10 -22 -6 -30 5 -13 33 -15 198 -13 l193 3 0 25 0
25 -186 3 c-156 2 -188 0 -199 -13z"/>
<path d="M564 227 c-22 -13 -17 -46 9 -52 12 -3 87 -4 167 -3 142 3 145 3 148
26 2 13 -3 24 -12 28 -24 9 -295 10 -312 1z"/>
</g>
</svg>
