<?xml version="1.0" standalone="no"?>
<!DOCTYPE svg PUBLIC "-//W3C//DTD SVG 20010904//EN"
 "http://www.w3.org/TR/2001/REC-SVG-20010904/DTD/svg10.dtd">
<svg version="1.0" xmlns="http://www.w3.org/2000/svg"
 width="183.000000pt" height="172.000000pt" viewBox="0 0 183.000000 172.000000"
 preserveAspectRatio="xMidYMid meet">

<g transform="translate(0.000000,172.000000) scale(0.100000,-0.100000)"
fill="#000000" stroke="none">
<path d="M808 1631 c-42 -27 -86 -77 -103 -117 -12 -30 -15 -96 -15 -394 l0
-358 -55 -57 c-30 -31 -55 -62 -55 -70 0 -8 -4 -15 -8 -15 -25 0 -55 -241 -33
-263 6 -6 11 -17 11 -25 0 -52 134 -222 175 -222 8 0 15 -4 15 -10 0 -5 9 -10
20 -10 11 0 20 -4 20 -9 0 -29 258 -29 276 0 3 5 14 9 25 9 10 0 19 5 19 10 0
6 7 10 15 10 15 0 125 101 125 114 0 4 8 20 19 34 62 88 63 286 1 373 -11 15
-20 30 -20 34 0 4 -20 27 -45 51 l-45 43 0 365 c0 202 -4 367 -9 370 -5 3 -12
17 -15 32 -7 27 -54 78 -98 107 -38 24 -181 23 -220 -2z m165 -106 c56 -27 57
-34 57 -452 l0 -382 28 -15 c30 -16 92 -80 92 -96 0 -5 4 -10 9 -10 13 0 23
-56 24 -125 0 -66 -9 -110 -29 -134 -7 -9 -24 -30 -39 -48 -64 -79 -203 -106
-307 -60 -54 24 -118 80 -118 104 0 7 -4 13 -9 13 -10 0 -20 41 -28 113 -5 47
14 137 29 137 4 0 8 7 8 15 0 8 3 15 8 15 4 0 16 13 26 29 11 16 35 36 53 45
l33 16 0 384 c0 266 4 393 11 410 13 28 61 55 97 56 13 0 38 -7 55 -15z"/>
<path d="M900 1220 c-13 -8 -16 -56 -20 -296 l-5 -287 -42 -23 c-52 -27 -64
-39 -86 -86 -32 -68 -20 -160 27 -210 42 -46 89 -68 146 -68 57 0 104 22 146
68 46 49 58 138 29 208 -17 40 -71 94 -95 94 -38 0 -40 17 -40 307 0 269 -1
283 -19 293 -24 12 -22 12 -41 0z"/>
</g>
</svg>
